<?xml version="1.0" encoding="UTF-8"?>
<!DOCTYPE svg PUBLIC "-//W3C//DTD SVG 1.1//EN" "http://www.w3.org/Graphics/SVG/1.1/DTD/svg11.dtd">
<svg xmlns="http://www.w3.org/2000/svg" version="1.1" width="50px" height="50px" style="shape-rendering:geometricPrecision; text-rendering:geometricPrecision; image-rendering:optimizeQuality; fill-rule:evenodd; clip-rule:evenodd" xmlns:xlink="http://www.w3.org/1999/xlink">
<g><path style="opacity:1" fill="#fcfdfd" d="M -0.5,-0.5 C 9.16667,-0.5 18.8333,-0.5 28.5,-0.5C 26.1137,0.92002 23.447,1.92002 20.5,2.5C 30.0773,5.06957 29.744,6.56957 19.5,7C 18.7476,7.67076 18.4142,8.5041 18.5,9.5C 18.1667,9.5 17.8333,9.5 17.5,9.5C 15.6112,8.62011 13.6112,8.62011 11.5,9.5C 10.4696,15.4632 10.3029,21.4632 11,27.5C 15.041,29.5566 16.2077,32.5566 14.5,36.5C 10.3656,35.5151 6.03225,35.1818 1.5,35.5C 0.833333,35.1667 0.166667,34.8333 -0.5,34.5C -0.5,22.8333 -0.5,11.1667 -0.5,-0.5 Z"/></g>
<g><path style="opacity:1" fill="#fafaf7" d="M 28.5,-0.5 C 35.5,-0.5 42.5,-0.5 49.5,-0.5C 49.5,13.1667 49.5,26.8333 49.5,40.5C 48.391,40.4431 47.391,40.1098 46.5,39.5C 45.65,34.1769 44.4833,34.1769 43,39.5C 42.7811,38.062 42.2811,36.7287 41.5,35.5C 40.676,37.7476 39.676,37.9142 38.5,36C 36.5273,35.5045 34.5273,35.3379 32.5,35.5C 32.6602,37.1992 32.4935,38.8659 32,40.5C 30.8647,40.273 29.698,39.9396 28.5,39.5C 29.6405,38.5745 29.6405,37.7412 28.5,37C 29.1667,36.6667 29.8333,36.3333 30.5,36C 27.1177,35.1764 23.7844,35.343 20.5,36.5C 20.8457,37.6956 21.3457,37.6956 22,36.5C 22.8625,39.543 22.0291,40.543 19.5,39.5C 19.6882,37.8967 19.1882,36.5634 18,35.5C 17.2607,37.2205 16.4274,38.8872 15.5,40.5C 14.8165,40.1373 14.1499,39.8039 13.5,39.5C 14.1098,38.609 14.4431,37.609 14.5,36.5C 16.2077,32.5566 15.041,29.5566 11,27.5C 10.3029,21.4632 10.4696,15.4632 11.5,9.5C 13.6112,8.62011 15.6112,8.62011 17.5,9.5C 15.9254,11.1137 15.2587,13.1137 15.5,15.5C 14.8333,15.5 14.1667,15.5 13.5,15.5C 12.3567,18.9758 12.1901,22.6425 13,26.5C 13.7083,27.3805 14.5416,28.0472 15.5,28.5C 16.8993,29.8897 18.5659,30.8897 20.5,31.5C 20.811,32.4778 21.4777,33.1445 22.5,33.5C 24.2145,33.4049 25.8812,33.0716 27.5,32.5C 30.8562,30.8016 33.5229,28.4682 35.5,25.5C 36.4794,22.3752 36.8128,19.0419 36.5,15.5C 35.1667,15.5 33.8333,15.5 32.5,15.5C 32.5,14.8333 32.8333,14.5 33.5,14.5C 34.9758,12.2911 34.3091,10.9577 31.5,10.5C 30.0697,9.46253 28.403,8.79586 26.5,8.5C 23.7008,7.07437 21.0342,7.4077 18.5,9.5C 18.4142,8.5041 18.7476,7.67076 19.5,7C 29.744,6.56957 30.0773,5.06957 20.5,2.5C 23.447,1.92002 26.1137,0.92002 28.5,-0.5 Z"/></g>
<g><path style="opacity:1" fill="#f69421" d="M 26.5,8.5 C 28.403,8.79586 30.0697,9.46253 31.5,10.5C 31.7329,12.0618 32.3995,13.3951 33.5,14.5C 32.8333,14.5 32.5,14.8333 32.5,15.5C 32.1667,15.5 31.8333,15.5 31.5,15.5C 29.8333,16.1667 28.1667,16.8333 26.5,17.5C 25.234,16.9101 23.9007,16.4101 22.5,16C 23.1667,15.6667 23.8333,15.3333 24.5,15C 23.3774,13.9563 22.0441,13.2896 20.5,13C 22.6635,11.5092 24.6635,10.0092 26.5,8.5 Z"/></g>
<g><path style="opacity:1" fill="#d39d6e" d="M 31.5,10.5 C 34.3091,10.9577 34.9758,12.2911 33.5,14.5C 32.3995,13.3951 31.7329,12.0618 31.5,10.5 Z"/></g>
<g><path style="opacity:1" fill="#f3b02d" d="M 26.5,8.5 C 24.6635,10.0092 22.6635,11.5092 20.5,13C 22.0441,13.2896 23.3774,13.9563 24.5,15C 23.8333,15.3333 23.1667,15.6667 22.5,16C 23.9007,16.4101 25.234,16.9101 26.5,17.5C 25.4324,18.4345 24.099,18.7678 22.5,18.5C 20.9696,15.9791 18.6363,14.9791 15.5,15.5C 15.2587,13.1137 15.9254,11.1137 17.5,9.5C 17.8333,9.5 18.1667,9.5 18.5,9.5C 21.0342,7.4077 23.7008,7.07437 26.5,8.5 Z"/></g>
<g><path style="opacity:1" fill="#edba8b" d="M 15.5,15.5 C 18.6363,14.9791 20.9696,15.9791 22.5,18.5C 22.5,18.8333 22.5,19.1667 22.5,19.5C 19.8684,18.528 17.5351,17.1947 15.5,15.5 Z"/></g>
<g><path style="opacity:1" fill="#e1e9ce" d="M 31.5,15.5 C 31.5,16.5 31.5,17.5 31.5,18.5C 26.6766,18.3272 24.6766,20.6606 25.5,25.5C 24.8333,24.5 24.1667,23.5 23.5,22.5C 23.4431,21.391 23.1098,20.391 22.5,19.5C 22.5,19.1667 22.5,18.8333 22.5,18.5C 24.099,18.7678 25.4324,18.4345 26.5,17.5C 28.1667,16.8333 29.8333,16.1667 31.5,15.5 Z"/></g>
<g><path style="opacity:1" fill="#54a3d4" d="M 31.5,15.5 C 31.8333,15.5 32.1667,15.5 32.5,15.5C 33.8333,15.5 35.1667,15.5 36.5,15.5C 36.8128,19.0419 36.4794,22.3752 35.5,25.5C 35.0133,24.5266 34.5133,23.5266 34,22.5C 32.6927,24.1918 31.1927,25.5251 29.5,26.5C 28.2946,25.3143 26.9613,25.3143 25.5,26.5C 25.5,26.1667 25.5,25.8333 25.5,25.5C 24.6766,20.6606 26.6766,18.3272 31.5,18.5C 31.5,17.5 31.5,16.5 31.5,15.5 Z"/></g>
<g><path style="opacity:1" fill="#af3839" d="M 13.5,15.5 C 13.1532,20.0787 13.8198,24.412 15.5,28.5C 14.5416,28.0472 13.7083,27.3805 13,26.5C 12.1901,22.6425 12.3567,18.9758 13.5,15.5 Z"/></g>
<g><path style="opacity:1" fill="#317ab1" d="M 35.5,25.5 C 33.5229,28.4682 30.8562,30.8016 27.5,32.5C 25.9519,32.1788 25.2852,31.1788 25.5,29.5C 26.8333,29.5 28.1667,29.5 29.5,29.5C 29.5,28.5 29.5,27.5 29.5,26.5C 31.1927,25.5251 32.6927,24.1918 34,22.5C 34.5133,23.5266 35.0133,24.5266 35.5,25.5 Z"/></g>
<g><path style="opacity:1" fill="#da2424" d="M 13.5,15.5 C 14.1667,15.5 14.8333,15.5 15.5,15.5C 17.5351,17.1947 19.8684,18.528 22.5,19.5C 23.1098,20.391 23.4431,21.391 23.5,22.5C 23.5,25.5 23.5,28.5 23.5,31.5C 22.5,31.5 21.5,31.5 20.5,31.5C 18.5659,30.8897 16.8993,29.8897 15.5,28.5C 13.8198,24.412 13.1532,20.0787 13.5,15.5 Z"/></g>
<g><path style="opacity:1" fill="#2871d7" d="M 29.5,26.5 C 29.5,27.5 29.5,28.5 29.5,29.5C 28.1667,29.5 26.8333,29.5 25.5,29.5C 25.5,28.5 25.5,27.5 25.5,26.5C 26.9613,25.3143 28.2946,25.3143 29.5,26.5 Z"/></g>
<g><path style="opacity:1" fill="#c0b2be" d="M 23.5,22.5 C 24.1667,23.5 24.8333,24.5 25.5,25.5C 25.5,25.8333 25.5,26.1667 25.5,26.5C 25.5,27.5 25.5,28.5 25.5,29.5C 25.2852,31.1788 25.9519,32.1788 27.5,32.5C 25.8812,33.0716 24.2145,33.4049 22.5,33.5C 21.4777,33.1445 20.811,32.4778 20.5,31.5C 21.5,31.5 22.5,31.5 23.5,31.5C 23.5,28.5 23.5,25.5 23.5,22.5 Z"/></g>
<g><path style="opacity:1" fill="#949494" d="M 1.5,35.5 C 6.03225,35.1818 10.3656,35.5151 14.5,36.5C 14.4431,37.609 14.1098,38.609 13.5,39.5C 12.8485,40.0906 12.1818,40.7573 11.5,41.5C 9.75381,35.0538 8.42047,35.0538 7.5,41.5C 6.54811,39.9547 6.21478,38.288 6.5,36.5C 5.12656,36.3433 3.79323,36.51 2.5,37C 4.03683,38.1096 4.7035,39.6096 4.5,41.5C 3.02218,41.762 1.68884,41.4287 0.5,40.5C 1.26236,40.0894 2.26236,39.9227 3.5,40C 1.96317,38.8904 1.2965,37.3904 1.5,35.5 Z"/></g>
<g><path style="opacity:1" fill="#a4a5a4" d="M 46.5,39.5 C 43.5839,42.4632 41.0839,42.1298 39,38.5C 38.5172,39.448 38.3505,40.448 38.5,41.5C 34.5,41.5 30.5,41.5 26.5,41.5C 25.8333,34.8333 25.1667,34.8333 24.5,41.5C 22.2188,41.9227 20.5521,41.256 19.5,39.5C 22.0291,40.543 22.8625,39.543 22,36.5C 21.3457,37.6956 20.8457,37.6956 20.5,36.5C 23.7844,35.343 27.1177,35.1764 30.5,36C 29.8333,36.3333 29.1667,36.6667 28.5,37C 29.6405,37.7412 29.6405,38.5745 28.5,39.5C 29.698,39.9396 30.8647,40.273 32,40.5C 32.4935,38.8659 32.6602,37.1992 32.5,35.5C 34.5273,35.3379 36.5273,35.5045 38.5,36C 39.676,37.9142 40.676,37.7476 41.5,35.5C 42.2811,36.7287 42.7811,38.062 43,39.5C 44.4833,34.1769 45.65,34.1769 46.5,39.5 Z"/></g>
<g><path style="opacity:1" fill="#f8f9f9" d="M -0.5,34.5 C 0.166667,34.8333 0.833333,35.1667 1.5,35.5C 1.2965,37.3904 1.96317,38.8904 3.5,40C 2.26236,39.9227 1.26236,40.0894 0.5,40.5C 1.68884,41.4287 3.02218,41.762 4.5,41.5C 4.7035,39.6096 4.03683,38.1096 2.5,37C 3.79323,36.51 5.12656,36.3433 6.5,36.5C 6.21478,38.288 6.54811,39.9547 7.5,41.5C 8.42047,35.0538 9.75381,35.0538 11.5,41.5C 12.1818,40.7573 12.8485,40.0906 13.5,39.5C 13.62,40.5862 14.2867,41.2528 15.5,41.5C 16.8669,40.7745 18.2003,40.1079 19.5,39.5C 20.5521,41.256 22.2188,41.9227 24.5,41.5C 25.1667,34.8333 25.8333,34.8333 26.5,41.5C 30.5,41.5 34.5,41.5 38.5,41.5C 38.3505,40.448 38.5172,39.448 39,38.5C 41.0839,42.1298 43.5839,42.4632 46.5,39.5C 47.391,40.1098 48.391,40.4431 49.5,40.5C 49.5,43.5 49.5,46.5 49.5,49.5C 32.8333,49.5 16.1667,49.5 -0.5,49.5C -0.5,44.5 -0.5,39.5 -0.5,34.5 Z"/></g>
<g><path style="opacity:1" fill="#8f8d90" d="M 19.5,39.5 C 18.2003,40.1079 16.8669,40.7745 15.5,41.5C 14.2867,41.2528 13.62,40.5862 13.5,39.5C 14.1499,39.8039 14.8165,40.1373 15.5,40.5C 16.4274,38.8872 17.2607,37.2205 18,35.5C 19.1882,36.5634 19.6882,37.8967 19.5,39.5 Z"/></g>
</svg>
